<svg width="123" height="32" viewBox="0 0 123 32" fill="none" xmlns="http://www.w3.org/2000/svg">
<circle cx="16" cy="16" r="16" fill="#FD5631"/>
<path d="M25.4938 14.9172L12.4438 7.15C12.2844 7.05625 12.1203 7 11.9328 7C11.4219 7 11.0047 7.42188 11.0047 7.9375H11V24.0625H11.0047C11.0047 24.5781 11.4219 25 11.9328 25C12.125 25 12.2844 24.9344 12.4578 24.8406L25.4938 17.0828C25.8031 16.825 26 16.4359 26 16C26 15.5641 25.8031 15.1797 25.4938 14.9172Z" fill="white"/>
<path d="M40.001 24V7.9H43.083L49.937 19.262H48.304L55.043 7.9H58.125L58.148 24H54.652L54.629 13.259H55.296L49.891 22.298H48.235L42.715 13.259H43.497V24H40.001ZM62.6305 24L69.8065 7.9H73.4865L80.6855 24H76.7755L70.8875 9.786H72.3595L66.4485 24H62.6305ZM66.2185 20.55L67.2075 17.721H75.4875L76.4995 20.55H66.2185ZM82.864 7.9H87.165L90.5 12.776L93.835 7.9H98.205L92.846 15.605L98.642 24H94.249L90.5 18.664L86.797 24H82.496L88.246 15.766L82.864 7.9ZM102.649 24V7.9H105.731L112.585 19.262H110.952L117.691 7.9H120.773L120.796 24H117.3L117.277 13.259H117.944L112.539 22.298H110.883L105.363 13.259H106.145V24H102.649Z" fill="white"/>
</svg>
