<svg width="122" height="37" viewBox="0 0 122 37" fill="none" xmlns="http://www.w3.org/2000/svg">
<path d="M39.001 31V14.9H42.083L48.937 26.262H47.304L54.043 14.9H57.125L57.148 31H53.652L53.629 20.259H54.296L48.891 29.298H47.235L41.715 20.259H42.497V31H39.001ZM61.6305 31L68.8065 14.9H72.4865L79.6855 31H75.7755L69.8875 16.786H71.3595L65.4485 31H61.6305ZM65.2185 27.55L66.2075 24.721H74.4875L75.4995 27.55H65.2185ZM81.864 14.9H86.165L89.5 19.776L92.835 14.9H97.205L91.846 22.605L97.642 31H93.249L89.5 25.664L85.797 31H81.496L87.246 22.766L81.864 14.9ZM101.649 31V14.9H104.731L111.585 26.262H109.952L116.691 14.9H119.773L119.796 31H116.3L116.277 20.259H116.944L111.539 29.298H109.883L104.363 20.259H105.145V31H101.649Z" fill="white"/>
<g clip-path="url(#clip0_15_15)">
<path d="M8.86703 0.601586C8.8416 0.613155 8.78148 0.622411 8.73292 0.622411C8.68437 0.624724 8.62425 0.636294 8.59882 0.650176C8.57339 0.664059 8.50171 0.677942 8.44391 0.68257C8.03235 0.712649 7.93986 0.724218 7.91905 0.740415C7.88437 0.768181 7.63928 0.826026 7.48437 0.842223C7.41038 0.851478 7.30865 0.879244 7.25778 0.904696C7.20691 0.930148 7.1098 0.957913 7.04506 0.964855C6.97801 0.971796 6.89709 0.994934 6.8624 1.02039C6.82772 1.04352 6.75605 1.07129 6.70055 1.07823C6.64506 1.08749 6.54102 1.12451 6.46934 1.15921C6.39535 1.19624 6.31212 1.22632 6.28206 1.22632C6.252 1.22632 6.1942 1.25177 6.15027 1.28416C6.10634 1.31655 6.04622 1.34201 6.01616 1.34201C5.95142 1.34201 5.87743 1.37903 5.81963 1.43687C5.79651 1.46232 5.75258 1.48083 5.72252 1.48083C5.69246 1.48083 5.63928 1.50629 5.60229 1.53637C5.56529 1.56645 5.49824 1.59884 5.452 1.60809C5.40576 1.61735 5.34795 1.64974 5.32021 1.67982C5.29477 1.7099 5.24853 1.73535 5.21847 1.73535C5.18842 1.73535 5.13986 1.76081 5.1098 1.79089C5.08206 1.82328 5.02888 1.85567 4.9942 1.86261C4.95951 1.86955 4.90634 1.90195 4.87859 1.93434C4.84853 1.96442 4.8046 1.98987 4.78148 1.98987C4.75836 1.98987 4.71212 2.01532 4.67975 2.04772C4.64738 2.08011 4.60807 2.10556 4.58957 2.10556C4.57108 2.10556 4.52021 2.13564 4.47859 2.17498C4.43466 2.212 4.3861 2.24439 4.37454 2.24439C4.36067 2.24439 4.31674 2.27447 4.27743 2.31381C4.23813 2.35083 4.1942 2.38322 4.18032 2.38322C4.16414 2.38322 4.12483 2.40867 4.09246 2.44107C3.96298 2.57064 3.88206 2.63774 3.84969 2.63774C3.83119 2.63774 3.80345 2.65625 3.78726 2.67939C3.77108 2.70484 3.70634 2.76731 3.6416 2.81822C3.48206 2.9501 3.28784 3.12595 3.2416 3.17917C3.21847 3.20231 3.18379 3.23933 3.15836 3.26016C3.13524 3.28098 3.07743 3.33882 3.03119 3.38741C2.98495 3.43832 2.90171 3.52624 2.84391 3.58409C2.71905 3.71135 2.3653 4.13015 2.31674 4.21113C2.29593 4.24352 2.24044 4.31757 2.19188 4.37541C2.14333 4.43557 2.10402 4.49342 2.10402 4.5073C2.10402 4.52118 2.09015 4.54663 2.07165 4.56283C2.05547 4.58134 2.01847 4.63687 1.99073 4.68778C1.96298 4.73637 1.90749 4.82429 1.86587 4.88214C1.82657 4.93998 1.77339 5.01865 1.75258 5.05567C1.53986 5.43051 1.48668 5.52769 1.46125 5.5971C1.44506 5.64107 1.41963 5.69428 1.40113 5.71279C1.38495 5.73362 1.36414 5.7799 1.35489 5.81692C1.34564 5.85394 1.3179 5.91178 1.29246 5.94186C1.26934 5.97426 1.24853 6.02053 1.24853 6.04367C1.24853 6.06912 1.22772 6.12003 1.20229 6.15473C1.17686 6.19175 1.14911 6.25423 1.13986 6.29819C1.13293 6.33984 1.10518 6.40462 1.08206 6.44396C1.05894 6.48098 1.04044 6.5342 1.04044 6.55965C1.04044 6.5851 1.02194 6.63832 0.998821 6.67534C0.973388 6.71467 0.947954 6.7864 0.938706 6.83499C0.929457 6.88358 0.901711 6.96225 0.876278 7.00853C0.853156 7.0548 0.832347 7.13116 0.832347 7.17975C0.832347 7.22834 0.811538 7.30701 0.788417 7.35329C0.765295 7.39956 0.737549 7.50137 0.728301 7.57773C0.719052 7.65408 0.693619 7.76283 0.670497 7.82068C0.649688 7.87852 0.624255 8.01272 0.617318 8.12147C0.610382 8.23022 0.584948 8.36442 0.561827 8.42227C0.522521 8.52176 0.520208 9.00766 0.508648 20.0376C0.501711 26.3682 0.501711 31.5627 0.506336 31.5789C0.51096 31.602 1.13755 31.6067 3.57454 31.602L6.63582 31.5951L6.64044 20.3731L6.64738 9.15112L6.69593 9.047C6.72368 8.98915 6.75142 8.89197 6.76067 8.83181C6.76761 8.76934 6.79073 8.69761 6.80923 8.66984C6.83003 8.64208 6.85547 8.57729 6.86934 8.5287C6.88321 8.48011 6.93408 8.37136 6.98495 8.29038C7.0335 8.20708 7.07512 8.13535 7.07512 8.13073C7.07512 8.09139 7.44506 7.63094 7.57223 7.51525C7.82888 7.27462 8.12252 7.05712 8.18495 7.05712C8.21269 7.05712 8.25662 7.03167 8.28437 7.00159C8.31212 6.97151 8.37686 6.93449 8.42541 6.92292C8.47397 6.90903 8.53177 6.88127 8.55489 6.86044C8.5757 6.84193 8.652 6.81417 8.72136 6.80491C8.79073 6.79334 8.89246 6.75864 8.95027 6.72856C9.04969 6.67534 9.06356 6.67534 9.76876 6.67534H10.4855L10.5988 6.73781C10.6659 6.77715 10.7468 6.8026 10.7977 6.8026C10.8485 6.8026 10.9086 6.82111 10.9433 6.84888C10.9757 6.87664 11.0381 6.90903 11.0797 6.92292C11.1214 6.9368 11.1861 6.97382 11.2208 7.0039C11.2578 7.03167 11.311 7.05712 11.3387 7.05712C11.3665 7.05712 11.415 7.08257 11.4451 7.11496C11.4751 7.14736 11.5098 7.17281 11.5214 7.17281C11.5329 7.17281 11.5861 7.20983 11.6393 7.25611C11.6902 7.30007 11.7618 7.36023 11.7965 7.38799C11.8844 7.45741 12.0462 7.61937 12.1086 7.69804C12.1364 7.73275 12.2127 7.82993 12.2751 7.91323C12.3399 7.99653 12.4139 8.08908 12.4393 8.12147C12.4647 8.15387 12.4902 8.20708 12.4971 8.24179C12.5063 8.2765 12.5225 8.3112 12.5341 8.32046C12.5618 8.33666 12.6844 8.60737 12.7052 8.6953C12.7121 8.73463 12.7399 8.80405 12.7653 8.85264C12.7884 8.90123 12.8092 8.98221 12.8092 9.03543C12.8092 9.08633 12.8231 9.165 12.8393 9.20896C12.8601 9.27375 12.8693 11.6038 12.8786 20.4425L12.8902 31.5951H15.9584H19.0289L19.0335 20.4194L19.0404 9.24367L19.0936 9.10484C19.1214 9.0308 19.1445 8.94056 19.1445 8.90585C19.1445 8.83413 19.2717 8.49862 19.3202 8.44309C19.3387 8.42458 19.3526 8.3945 19.3526 8.3783C19.3526 8.33897 19.4497 8.18163 19.5792 8.01272C19.6323 7.94099 19.6763 7.87158 19.6763 7.8577C19.6763 7.84381 19.7086 7.79985 19.7456 7.76283C19.7849 7.7235 19.8289 7.67953 19.8451 7.66102C19.9399 7.54996 20.2011 7.30932 20.2358 7.29776C20.2589 7.29081 20.2774 7.27693 20.2774 7.26536C20.2774 7.25379 20.3167 7.22371 20.3653 7.19826C20.4115 7.17512 20.4717 7.13347 20.4948 7.10571C20.5202 7.07794 20.5572 7.05712 20.5803 7.05712C20.6034 7.05712 20.6497 7.03167 20.6867 7.00159C20.7214 6.97151 20.7907 6.9368 20.837 6.92292C20.8855 6.90903 20.9549 6.87664 20.9919 6.85119C21.0289 6.82342 21.0959 6.8026 21.1399 6.8026C21.1838 6.8026 21.2693 6.77483 21.3318 6.73781L21.4451 6.67534H22.1618H22.8786L23.0058 6.73781C23.0751 6.77252 23.1653 6.8026 23.2069 6.8026C23.2485 6.8026 23.3063 6.82574 23.3456 6.85813C23.3803 6.88821 23.4428 6.91829 23.4821 6.92755C23.5214 6.9368 23.5884 6.96919 23.6323 7.00159C23.674 7.03167 23.7248 7.05712 23.7456 7.05712C23.7664 7.05712 23.8081 7.08257 23.8381 7.11496C23.8682 7.14736 23.9052 7.17281 23.9214 7.17281C23.9375 7.17281 23.9884 7.20289 24.03 7.24222C24.074 7.27924 24.1179 7.31164 24.1271 7.31164C24.1387 7.31164 24.2428 7.41345 24.3607 7.53608C24.6451 7.83225 24.6474 7.83687 24.7283 7.9595C24.7676 8.01735 24.8115 8.07982 24.8277 8.09833C24.8925 8.17469 24.9664 8.30658 24.9826 8.37136C24.9896 8.40838 25.0173 8.45929 25.0428 8.48243C25.0659 8.50325 25.0867 8.53796 25.0867 8.55878C25.0867 8.57961 25.1121 8.65133 25.1445 8.71843C25.1769 8.78785 25.2023 8.86883 25.2023 8.89891C25.2023 8.92899 25.2254 9.00766 25.2555 9.07476L25.3063 9.19739L25.3133 20.3962L25.3179 31.5951H28.3769H31.4335L31.4404 20.5813C31.4474 9.78279 31.4428 8.88503 31.3757 8.64902C31.3618 8.60274 31.3433 8.44541 31.3318 8.30195C31.3202 8.15387 31.2971 8.00809 31.2786 7.96876C31.2578 7.93174 31.237 7.8253 31.2277 7.73507C31.2208 7.64251 31.193 7.51525 31.1676 7.45047C31.1422 7.38568 31.1214 7.30007 31.1214 7.25842C31.1214 7.21677 31.1006 7.15198 31.0751 7.11496C31.0497 7.07563 31.0289 7.01316 31.0289 6.97614C31.0289 6.9368 31.0034 6.8535 30.9711 6.79103C30.941 6.72624 30.9133 6.65452 30.9133 6.62675C30.9133 6.59898 30.8878 6.52957 30.8555 6.46941C30.8231 6.40925 30.7977 6.33521 30.7977 6.30744C30.7977 6.27736 30.7815 6.24034 30.763 6.22415C30.7445 6.21026 30.7237 6.17324 30.7144 6.14779C30.7075 6.12003 30.6543 5.99739 30.5965 5.87708C30.4809 5.6295 30.4323 5.53232 30.3584 5.39117C30.3399 5.35878 30.3167 5.31251 30.3029 5.28705C30.289 5.2616 30.2566 5.20838 30.2289 5.17136C30.2011 5.13203 30.1757 5.09038 30.1711 5.07881C30.1664 5.06493 30.1248 4.99551 30.0809 4.92147C30.037 4.84743 29.9884 4.76876 29.9769 4.74794C29.9445 4.69472 29.7572 4.43557 29.6485 4.29443C29.6 4.23196 29.526 4.12783 29.4844 4.06305C29.4243 3.96818 29.2485 3.76688 29.0589 3.57483C29.0474 3.56095 28.9942 3.50542 28.941 3.44989C28.6196 3.11207 28.2659 2.77657 28.2011 2.75574C28.1873 2.75112 28.1456 2.71872 28.111 2.68633C27.9861 2.56601 27.9052 2.49891 27.8821 2.49891C27.8682 2.49891 27.8266 2.47115 27.7896 2.43412C27.6532 2.30455 27.6023 2.26753 27.5237 2.23282C27.4797 2.21431 27.4381 2.18423 27.4312 2.16572C27.4243 2.14721 27.3942 2.12639 27.3641 2.11945C27.3318 2.11019 27.2832 2.08011 27.2508 2.04772C27.2185 2.01532 27.1722 1.98987 27.1491 1.98987C27.126 1.98987 27.0821 1.96442 27.052 1.93203C27.0219 1.89963 26.978 1.87418 26.9572 1.87418C26.9341 1.87418 26.8786 1.84179 26.837 1.80477C26.793 1.76543 26.7352 1.73535 26.7098 1.73535C26.6844 1.73535 26.6335 1.7099 26.5965 1.67982C26.5595 1.64743 26.4971 1.61504 26.4601 1.60578C26.4231 1.59653 26.3653 1.56645 26.3306 1.53868C26.2982 1.51091 26.2266 1.48083 26.1757 1.47158C26.1225 1.46464 26.0809 1.44844 26.0809 1.43919C26.0809 1.41142 25.9514 1.34201 25.9006 1.34201C25.8774 1.34201 25.8266 1.31887 25.7919 1.29342C25.7572 1.26565 25.6809 1.23326 25.6231 1.22169C25.563 1.21243 25.4844 1.18235 25.4497 1.15459C25.415 1.12914 25.3271 1.09906 25.2555 1.08749C25.1838 1.07592 25.1075 1.04815 25.0867 1.02964C25.0636 1.00882 24.9734 0.981051 24.8878 0.967168C24.8 0.955599 24.6867 0.923206 24.6358 0.89544C24.5826 0.867675 24.4647 0.842223 24.3514 0.830654C24.2474 0.819085 24.1225 0.791319 24.074 0.765867C23.9954 0.726532 23.8705 0.708022 23.5144 0.684884C23.4451 0.680256 23.3595 0.664059 23.3248 0.650176C23.2901 0.636294 23.2277 0.627038 23.1861 0.627038C23.1445 0.629352 23.0797 0.617783 23.0451 0.6039C23.0011 0.587704 22.7121 0.578448 22.1711 0.578448C21.5006 0.578448 21.348 0.58539 21.2786 0.613155C21.2323 0.63398 21.1745 0.643235 21.1514 0.63398C21.1283 0.627038 21.0589 0.636294 20.9988 0.654804C20.9387 0.673315 20.8277 0.689511 20.7514 0.691825C20.5387 0.698766 20.3283 0.738101 20.2289 0.786691C20.1688 0.819085 20.0948 0.832967 19.9977 0.832967C19.8867 0.832967 19.8312 0.84685 19.7595 0.888499C19.7063 0.918578 19.6023 0.950972 19.526 0.960227C19.4497 0.969482 19.341 1.00188 19.2832 1.02964C19.2254 1.05741 19.1352 1.08749 19.0844 1.09211C19.0312 1.09906 18.9572 1.12682 18.9225 1.15459C18.8855 1.18004 18.8046 1.21243 18.7422 1.224C18.6797 1.23557 18.6196 1.26102 18.6081 1.28185C18.5965 1.30267 18.5456 1.32581 18.4948 1.33275C18.4439 1.34201 18.3584 1.37903 18.3052 1.41373C18.252 1.45075 18.1803 1.48083 18.148 1.48083C18.1156 1.48083 18.0647 1.50629 18.037 1.53637C18.0069 1.56645 17.9491 1.59884 17.9075 1.60578C17.8659 1.61504 17.8034 1.64743 17.7711 1.67751C17.7364 1.7099 17.6902 1.73535 17.6647 1.73535C17.6416 1.73535 17.593 1.76081 17.556 1.79089C17.5191 1.82328 17.4612 1.85567 17.4289 1.86261C17.3965 1.87187 17.3456 1.90426 17.3156 1.93434C17.2878 1.96442 17.2439 1.98987 17.2208 1.98987C17.1954 1.98987 17.1537 2.01532 17.1237 2.04772C17.0936 2.08011 17.0566 2.10556 17.0428 2.10556C17.0266 2.10556 16.9896 2.13102 16.9572 2.16341C16.9248 2.1958 16.8693 2.23745 16.83 2.25596C16.7607 2.29298 16.7399 2.30918 16.5942 2.43875C16.5503 2.47809 16.474 2.53593 16.4277 2.56833C16.3445 2.62386 16.2589 2.69327 16.1133 2.82747C16.0023 2.92928 15.9329 2.9154 15.7387 2.75343C15.526 2.57527 15.4797 2.53825 15.3526 2.44107C15.2948 2.39942 15.2231 2.33694 15.1907 2.30455C15.1584 2.27216 15.1167 2.24439 15.1006 2.24439C15.0844 2.24439 15.0335 2.212 14.9896 2.17498C14.948 2.13564 14.8971 2.10556 14.8809 2.10556C14.8647 2.10556 14.8277 2.08011 14.7977 2.04772C14.7676 2.01532 14.7237 1.98987 14.7006 1.98987C14.6774 1.98987 14.6358 1.96442 14.6104 1.93203C14.5826 1.90195 14.5318 1.86955 14.4971 1.86261C14.4601 1.85567 14.4139 1.82791 14.393 1.80477C14.3699 1.77932 14.3144 1.74924 14.2682 1.73304C14.2219 1.71916 14.1757 1.69371 14.1618 1.67982C14.1295 1.63817 14.0462 1.59653 14 1.59653C13.9769 1.59653 13.9306 1.57107 13.8913 1.53868C13.8543 1.50629 13.7988 1.48083 13.7688 1.48083C13.7387 1.48083 13.6948 1.46232 13.6717 1.43687C13.6139 1.37903 13.5399 1.34201 13.4751 1.34201C13.4451 1.34201 13.3849 1.31655 13.341 1.28416C13.2971 1.25177 13.237 1.22632 13.2046 1.22632C13.1722 1.22632 13.0821 1.19392 13.0058 1.1569C12.9295 1.11988 12.8347 1.08749 12.7954 1.08749C12.7584 1.08749 12.6936 1.06203 12.652 1.03196C12.6034 0.997248 12.5318 0.97411 12.4393 0.964855C12.3607 0.955599 12.2428 0.923206 12.1757 0.890813C12.0948 0.853792 12.0139 0.832967 11.9375 0.832967C11.8728 0.832967 11.7526 0.807516 11.6624 0.775122C11.5468 0.733474 11.4243 0.710335 11.2139 0.696453C11.0543 0.684884 10.8994 0.664059 10.867 0.65249C10.7144 0.592331 10.4925 0.578448 9.72021 0.580762C9.27628 0.580762 8.89246 0.590017 8.86703 0.601586Z" fill="#FD5631"/>
</g>
<defs>
<clipPath id="clip0_15_15">
<rect width="32" height="32" fill="white"/>
</clipPath>
</defs>
</svg>
